<svg id="visual" viewBox="0 0 900 600" width="900" height="600" xmlns="http://www.w3.org/2000/svg" xmlns:xlink="http://www.w3.org/1999/xlink" version="1.1"><path d="M0 572L10 569.5C20 567 40 562 60 559.2C80 556.3 100 555.7 120 559.5C140 563.3 160 571.7 180 576.3C200 581 220 582 240 582.7C260 583.3 280 583.7 300 581.8C320 580 340 576 360 572.3C380 568.7 400 565.3 420 567.3C440 569.3 460 576.7 480 577C500 577.3 520 570.7 540 567C560 563.3 580 562.7 600 565.7C620 568.7 640 575.3 660 578.3C680 581.3 700 580.7 720 577.8C740 575 760 570 780 570C800 570 820 575 840 574.8C860 574.7 880 569.3 890 566.7L900 564L900 601L890 601C880 601 860 601 840 601C820 601 800 601 780 601C760 601 740 601 720 601C700 601 680 601 660 601C640 601 620 601 600 601C580 601 560 601 540 601C520 601 500 601 480 601C460 601 440 601 420 601C400 601 380 601 360 601C340 601 320 601 300 601C280 601 260 601 240 601C220 601 200 601 180 601C160 601 140 601 120 601C100 601 80 601 60 601C40 601 20 601 10 601L0 601Z" fill="#F8F1F1" stroke-linecap="round" stroke-linejoin="miter"></path></svg>